<svg xmlns="http://www.w3.org/2000/svg" xmlns:xlink="http://www.w3.org/1999/xlink" width="2970" zoomAndPan="magnify" viewBox="0 0 2227.5 506.249968" height="675" preserveAspectRatio="xMidYMid meet" version="1.0"><defs><g/><clipPath id="a995c3fe39"><path d="M 1188 61 L 1276.761719 61 L 1276.761719 435 L 1188 435 Z M 1188 61 " clip-rule="nonzero"/></clipPath></defs><g fill="#000000" fill-opacity="1"><g transform="translate(-12.60266, 464.539316)"><g><path d="M 295.265625 -419.53125 L 271.890625 0 L 201.796875 0 L 167.8125 -125.859375 C 167.457031 -127.273438 166.925781 -128.601562 166.21875 -129.84375 C 165.507812 -131.082031 164.269531 -131.703125 162.5 -131.703125 C 160.726562 -131.703125 159.488281 -131.082031 158.78125 -129.84375 C 158.070312 -128.601562 157.539062 -127.273438 157.1875 -125.859375 L 122.671875 0 L 53.109375 0 L 29.203125 -419.53125 L 104.078125 -419.53125 L 115.765625 -215.078125 C 115.765625 -214.015625 115.941406 -212.773438 116.296875 -211.359375 C 116.648438 -209.941406 117.535156 -209.234375 118.953125 -209.234375 C 120.367188 -209.234375 121.429688 -209.941406 122.140625 -211.359375 C 122.847656 -212.773438 123.378906 -214.015625 123.734375 -215.078125 L 156.65625 -336.6875 C 157.007812 -338.101562 157.628906 -339.429688 158.515625 -340.671875 C 159.398438 -341.910156 160.726562 -342.53125 162.5 -342.53125 C 164.269531 -342.53125 165.597656 -341.910156 166.484375 -340.671875 C 167.367188 -339.429688 167.988281 -338.101562 168.34375 -336.6875 L 200.734375 -215.078125 C 201.085938 -214.015625 201.617188 -212.773438 202.328125 -211.359375 C 203.035156 -209.941406 204.097656 -209.234375 205.515625 -209.234375 C 206.929688 -209.234375 207.816406 -209.941406 208.171875 -211.359375 C 208.523438 -212.773438 208.703125 -214.015625 208.703125 -215.078125 L 220.390625 -419.53125 Z M 295.265625 -419.53125 "/></g></g></g><g fill="#000000" fill-opacity="1"><g transform="translate(311.866034, 464.539316)"><g><path d="M 103.546875 0 L 29.203125 0 L 29.203125 -419.53125 L 103.546875 -419.53125 Z M 103.546875 0 "/></g></g></g><g fill="#000000" fill-opacity="1"><g transform="translate(444.627347, 464.539316)"><g><path d="M 294.734375 -95.59375 C 294.734375 -82.132812 292.253906 -69.648438 287.296875 -58.140625 C 282.335938 -46.640625 275.519531 -36.550781 266.84375 -27.875 C 258.175781 -19.207031 248 -12.394531 236.3125 -7.4375 C 224.632812 -2.476562 212.242188 0 199.140625 0 L 124.796875 0 C 111.335938 0 99.117188 -2.300781 88.140625 -6.90625 C 77.171875 -11.507812 67.523438 -17.789062 59.203125 -25.75 C 50.890625 -33.71875 44.164062 -43.007812 39.03125 -53.625 C 33.894531 -64.25 30.617188 -75.757812 29.203125 -88.15625 L 103.546875 -106.734375 C 104.253906 -95.765625 107.617188 -87.269531 113.640625 -81.25 C 119.660156 -75.226562 128.691406 -72.21875 140.734375 -72.21875 L 183.21875 -72.21875 C 208 -72.21875 220.390625 -84.609375 220.390625 -109.390625 L 220.390625 -123.734375 C 220.390625 -132.941406 218.707031 -139.929688 215.34375 -144.703125 C 211.976562 -149.484375 205.691406 -153.820312 196.484375 -157.71875 L 99.84375 -196.484375 C 90.632812 -200.023438 81.867188 -204.539062 73.546875 -210.03125 C 65.234375 -215.519531 57.710938 -222.242188 50.984375 -230.203125 C 44.253906 -238.171875 38.941406 -247.285156 35.046875 -257.546875 C 31.148438 -267.816406 29.203125 -279.503906 29.203125 -292.609375 L 29.203125 -323.9375 C 29.203125 -337.039062 31.679688 -349.429688 36.640625 -361.109375 C 41.597656 -372.796875 48.410156 -382.972656 57.078125 -391.640625 C 65.753906 -400.316406 75.84375 -407.132812 87.34375 -412.09375 C 98.851562 -417.050781 111.335938 -419.53125 124.796875 -419.53125 L 199.140625 -419.53125 C 212.597656 -419.53125 224.898438 -417.140625 236.046875 -412.359375 C 247.203125 -407.578125 256.9375 -401.113281 265.25 -392.96875 C 273.570312 -384.832031 280.300781 -375.539062 285.4375 -365.09375 C 290.570312 -354.644531 293.671875 -343.757812 294.734375 -332.4375 L 220.390625 -313.84375 C 219.679688 -324.113281 216.316406 -332.253906 210.296875 -338.265625 C 204.273438 -344.285156 195.25 -347.296875 183.21875 -347.296875 L 140.734375 -347.296875 C 115.941406 -347.296875 103.546875 -334.90625 103.546875 -310.125 L 103.546875 -304.828125 C 103.546875 -292.785156 104.875 -283.84375 107.53125 -278 C 110.1875 -272.15625 116.117188 -267.46875 125.328125 -263.9375 L 225.15625 -224.109375 C 245.695312 -215.960938 262.425781 -204.804688 275.34375 -190.640625 C 288.269531 -176.484375 294.734375 -158.429688 294.734375 -136.484375 Z M 294.734375 -95.59375 "/></g></g></g><g fill="#000000" fill-opacity="1"><g transform="translate(768.565069, 464.539316)"><g><path d="M 294.734375 0 L 29.203125 0 L 29.203125 -419.53125 L 294.734375 -419.53125 L 294.734375 -347.296875 L 103.546875 -347.296875 L 103.546875 -245.875 L 241.625 -245.875 L 241.625 -173.65625 L 103.546875 -173.65625 L 103.546875 -72.21875 L 294.734375 -72.21875 Z M 294.734375 0 "/></g></g></g><g fill="#000000" fill-opacity="1"><g transform="translate(1092.502717, 464.539316)"><g/></g></g><g fill="#000000" fill-opacity="1"><g transform="translate(1267.747688, 464.539316)"><g><path d="M 294.734375 -347.296875 L 199.140625 -347.296875 L 199.140625 0 L 124.796875 0 L 124.796875 -347.296875 L 29.203125 -347.296875 L 29.203125 -419.53125 L 294.734375 -419.53125 Z M 294.734375 -347.296875 "/></g></g></g><g fill="#000000" fill-opacity="1"><g transform="translate(1591.685335, 464.539316)"><g><path d="M 294.734375 0 L 217.734375 0 L 203.921875 -69.5625 L 120.015625 -69.5625 L 106.203125 0 L 29.203125 0 L 125.859375 -419.53125 L 198.078125 -419.53125 Z M 190.109375 -141.796875 L 167.28125 -260.21875 C 166.925781 -261.632812 166.394531 -263.398438 165.6875 -265.515625 C 164.976562 -267.640625 163.738281 -268.703125 161.96875 -268.703125 C 160.195312 -268.703125 158.957031 -267.640625 158.25 -265.515625 C 157.539062 -263.398438 157.007812 -261.632812 156.65625 -260.21875 L 133.828125 -141.796875 Z M 190.109375 -141.796875 "/></g></g></g><g fill="#000000" fill-opacity="1"><g transform="translate(1915.622982, 464.539316)"><g><path d="M 294.734375 -269.234375 C 294.734375 -255.785156 292.253906 -243.304688 287.296875 -231.796875 C 282.335938 -220.296875 275.519531 -210.207031 266.84375 -201.53125 C 258.175781 -192.851562 248 -186.035156 236.3125 -181.078125 C 224.632812 -176.128906 212.242188 -173.65625 199.140625 -173.65625 L 103.546875 -173.65625 L 103.546875 0 L 29.203125 0 L 29.203125 -419.53125 L 199.140625 -419.53125 C 212.242188 -419.53125 224.632812 -417.050781 236.3125 -412.09375 C 248 -407.132812 258.175781 -400.316406 266.84375 -391.640625 C 275.519531 -382.972656 282.335938 -372.796875 287.296875 -361.109375 C 292.253906 -349.429688 294.734375 -337.039062 294.734375 -323.9375 Z M 220.390625 -283.046875 L 220.390625 -310.125 C 220.390625 -334.90625 208 -347.296875 183.21875 -347.296875 L 103.546875 -347.296875 L 103.546875 -245.875 L 183.21875 -245.875 C 208 -245.875 220.390625 -258.265625 220.390625 -283.046875 Z M 220.390625 -283.046875 "/></g></g></g><path fill="#000000" d="M 1139.964844 248.035156 C 1139.964844 215.363281 1128.074219 185.417969 1108.421875 162.324219 C 1104.792969 158.0625 1098.3125 157.808594 1094.367188 161.773438 C 1090.835938 165.316406 1090.621094 170.980469 1093.863281 174.785156 C 1110.664062 194.507812 1120.828125 220.101562 1120.828125 248.035156 C 1120.828125 275.953125 1110.664062 301.542969 1093.863281 321.265625 C 1090.621094 325.070312 1090.839844 330.738281 1094.367188 334.28125 C 1098.3125 338.246094 1104.792969 337.992188 1108.421875 333.730469 C 1128.074219 310.65625 1139.964844 280.710938 1139.964844 248.035156 " fill-opacity="1" fill-rule="nonzero"/><path fill="#000000" d="M 1210.710938 248.035156 C 1210.710938 195.691406 1190.894531 147.917969 1158.394531 111.867188 C 1154.699219 107.765625 1148.367188 107.542969 1144.476562 111.453125 L 1144.464844 111.460938 C 1140.839844 115.105469 1140.761719 120.9375 1144.207031 124.753906 C 1173.632812 157.394531 1191.574219 200.652344 1191.574219 248.035156 C 1191.574219 295.421875 1173.636719 338.671875 1144.207031 371.296875 C 1140.765625 375.117188 1140.84375 380.949219 1144.46875 384.59375 L 1144.476562 384.601562 C 1148.371094 388.507812 1154.699219 388.289062 1158.394531 384.1875 C 1190.898438 348.152344 1210.710938 300.378906 1210.710938 248.035156 " fill-opacity="1" fill-rule="nonzero"/><g clip-path="url(#a995c3fe39)"><path fill="#000000" d="M 1276.824219 248.035156 C 1276.824219 177.304688 1249.539062 112.839844 1204.984375 64.703125 C 1201.308594 60.730469 1195.0625 60.660156 1191.242188 64.492188 L 1191.234375 64.496094 C 1187.585938 68.164062 1187.519531 74.050781 1191.03125 77.851562 C 1232.367188 122.550781 1257.6875 182.386719 1257.6875 248.035156 C 1257.6875 313.683594 1232.371094 373.519531 1191.035156 418.199219 C 1187.519531 422 1187.589844 427.894531 1191.238281 431.558594 L 1191.242188 431.558594 C 1195.0625 435.394531 1201.308594 435.324219 1204.988281 431.351562 C 1249.539062 383.226562 1276.824219 318.765625 1276.824219 248.035156 " fill-opacity="1" fill-rule="nonzero"/></g></svg>